<?xml version="1.0" encoding="utf-8"?>
<!-- Generator: Adobe Illustrator 25.2.1, SVG Export Plug-In . SVG Version: 6.00 Build 0)  -->
<svg version="1.1" id="Layer_1" xmlns="http://www.w3.org/2000/svg" xmlns:xlink="http://www.w3.org/1999/xlink" x="0px" y="0px"
	 viewBox="0 0 51.02 53.14" style="enable-background:new 0 0 51.02 53.14;" xml:space="preserve">
<style type="text/css">
	.st0{fill:#FFFFFF;}
	.st1{fill:#525251;}
	.st2{fill:#7A7A7A;}
</style>
<g>
	<path class="st0" d="M34.22,44.13h5.04c3.57,0,6.48-3.03,6.48-6.76c0-3.73-2.91-6.76-6.48-6.76v0h-9.12v17.86h4.08V44.13z
		 M34.22,34.87h5.04v0c1.32,0,2.39,1.12,2.39,2.5c0,1.38-1.07,2.5-2.39,2.5h-5.04V34.87z"/>
	<polygon class="st0" points="19.91,22.54 19.91,22.54 19.91,18.27 19.91,18.27 10.36,18.27 10.36,4.67 10.36,4.67 6.27,4.67 
		6.27,4.67 6.27,22.54 6.27,22.54 	"/>
	<path class="st0" d="M13.09,49.53c5.28,0,9.58-4.48,9.58-10c0-5.51-4.3-10-9.58-10c-5.28,0-9.58,4.48-9.58,10
		C3.51,45.05,7.81,49.53,13.09,49.53z M13.09,33.8c3.03,0,5.49,2.57,5.49,5.73c0,3.16-2.46,5.73-5.49,5.73
		c-3.03,0-5.49-2.57-5.49-5.73C7.6,36.38,10.06,33.8,13.09,33.8z"/>
	<path class="st0" d="M37.93,23.6c1.16,0,2.26-0.21,3.29-0.61c3.67-1.4,6.29-5.08,6.29-9.39c0-5.51-4.3-10-9.58-10
		c-1.16,0-2.26,0.21-3.29,0.61c-3.67,1.4-6.29,5.08-6.29,9.39C28.36,19.12,32.65,23.6,37.93,23.6z M37.93,7.87
		c3.03,0,5.49,2.57,5.49,5.73c0,3.16-2.46,5.73-5.49,5.73c-3.03,0-5.49-2.57-5.49-5.73C32.44,10.44,34.91,7.87,37.93,7.87z"/>
	<path class="st0" d="M0,0v53.14h51.02V0H0z M24.83,51.79H1.35V27.28h23.48V51.79z M24.83,25.86H1.35V1.35h23.48V25.86z
		 M49.67,51.79H26.19V27.28h23.48V51.79z M49.67,25.86H26.19V1.35h23.48V25.86z"/>
	<path class="st1" d="M37.93,19.34c3.03,0,5.49-2.57,5.49-5.73c0-3.16-2.46-5.73-5.49-5.73c-3.03,0-5.49,2.57-5.49,5.73
		C32.44,16.77,34.91,19.34,37.93,19.34z"/>
	<path class="st1" d="M26.19,25.86h23.48V1.35H26.19V25.86z M34.64,4.22c1.03-0.39,2.13-0.61,3.29-0.61c5.28,0,9.58,4.48,9.58,10
		c0,4.31-2.62,7.99-6.29,9.39c-1.03,0.39-2.13,0.61-3.29,0.61c-5.28,0-9.58-4.48-9.58-10C28.36,9.3,30.98,5.62,34.64,4.22z"/>
	<path class="st1" d="M13.09,45.27c3.03,0,5.49-2.57,5.49-5.73c0-3.16-2.46-5.73-5.49-5.73c-3.03,0-5.49,2.57-5.49,5.73
		C7.6,42.7,10.06,45.27,13.09,45.27z"/>
	<path class="st1" d="M1.35,51.79h23.48V27.28H1.35V51.79z M13.09,29.54c5.28,0,9.58,4.48,9.58,10c0,5.51-4.3,10-9.58,10
		c-5.28,0-9.58-4.48-9.58-10C3.51,34.02,7.81,29.54,13.09,29.54z"/>
	<path class="st1" d="M1.35,25.86h23.48V1.35H1.35V25.86z M6.27,4.67L6.27,4.67h4.08h0v13.6h9.55h0v4.26h0H6.27h0V4.67z"/>
	<path class="st2" d="M26.19,51.79h23.48V27.28H26.19V51.79z M30.13,30.61h9.12v0c3.57,0,6.48,3.03,6.48,6.76
		c0,3.73-2.91,6.76-6.48,6.76h-5.04v4.34h-4.08V30.61z"/>
	<path class="st2" d="M41.65,37.37c0-1.38-1.07-2.5-2.39-2.5v0h-5.04v5h5.04C40.57,39.87,41.65,38.75,41.65,37.37z"/>
</g>
</svg>
