<?xml version="1.0" encoding="utf-8"?>
<!-- Generator: Adobe Illustrator 25.2.1, SVG Export Plug-In . SVG Version: 6.00 Build 0)  -->
<svg version="1.1" id="Layer_1" xmlns="http://www.w3.org/2000/svg" xmlns:xlink="http://www.w3.org/1999/xlink" x="0px" y="0px"
	 viewBox="0 0 70.87 73.81" style="enable-background:new 0 0 70.87 73.81;" xml:space="preserve">
<style type="text/css">
	.st0{fill:#FFFFFF;}
	.st1{fill:#525251;}
	.st2{fill:#7A7A7A;}
</style>
<g>
	<path class="st0" d="M47.53,61.29h6.99c4.96,0,9-4.21,9-9.39c0-5.18-4.04-9.39-9-9.39v0H41.85v24.81h5.67V61.29z M47.53,48.43h6.99
		v0c1.83,0,3.32,1.56,3.32,3.47c0,1.91-1.49,3.47-3.32,3.47h-6.99V48.43z"/>
	<polygon class="st0" points="27.65,31.3 27.65,31.3 27.65,25.38 27.65,25.38 14.39,25.38 14.39,6.49 14.39,6.49 8.71,6.49 
		8.71,6.49 8.71,31.3 8.71,31.3 	"/>
	<path class="st0" d="M18.18,68.8c7.33,0,13.3-6.23,13.3-13.88c0-7.66-5.97-13.88-13.3-13.88c-7.33,0-13.3,6.23-13.3,13.88
		C4.88,62.57,10.85,68.8,18.18,68.8z M18.18,46.95c4.21,0,7.63,3.57,7.63,7.96c0,4.39-3.42,7.96-7.63,7.96
		c-4.21,0-7.63-3.57-7.63-7.96C10.55,50.52,13.97,46.95,18.18,46.95z"/>
	<path class="st0" d="M52.69,32.78c1.6,0,3.14-0.3,4.57-0.84c5.09-1.95,8.73-7.06,8.73-13.04c0-7.66-5.97-13.88-13.3-13.88
		c-1.6,0-3.14,0.3-4.57,0.84c-5.09,1.95-8.73,7.06-8.73,13.04C39.38,26.55,45.35,32.78,52.69,32.78z M52.69,10.93
		c4.21,0,7.63,3.57,7.63,7.96c0,4.39-3.42,7.96-7.63,7.96c-4.21,0-7.63-3.57-7.63-7.96C45.06,14.51,48.48,10.93,52.69,10.93z"/>
	<path class="st0" d="M0,0v73.81h70.87V0H0z M34.49,71.93H1.87V37.89h32.61V71.93z M34.49,35.92H1.87V1.88h32.61V35.92z
		 M68.99,71.93H36.38V37.89h32.61V71.93z M68.99,35.92H36.38V1.88h32.61V35.92z"/>
	<path class="st1" d="M52.69,26.86c4.21,0,7.63-3.57,7.63-7.96c0-4.39-3.42-7.96-7.63-7.96c-4.21,0-7.63,3.57-7.63,7.96
		C45.06,23.29,48.48,26.86,52.69,26.86z"/>
	<path class="st1" d="M36.38,35.92h32.61V1.88H36.38V35.92z M48.12,5.86c1.43-0.55,2.96-0.84,4.57-0.84c7.33,0,13.3,6.23,13.3,13.88
		c0,5.98-3.64,11.09-8.73,13.04c-1.43,0.55-2.96,0.84-4.57,0.84c-7.33,0-13.3-6.23-13.3-13.88C39.38,12.91,43.03,7.8,48.12,5.86z"/>
	<path class="st1" d="M18.18,62.87c4.21,0,7.63-3.57,7.63-7.96c0-4.39-3.42-7.96-7.63-7.96c-4.21,0-7.63,3.57-7.63,7.96
		C10.55,59.3,13.97,62.87,18.18,62.87z"/>
	<path class="st1" d="M1.87,71.93h32.61V37.89H1.87V71.93z M18.18,41.03c7.33,0,13.3,6.23,13.3,13.88c0,7.66-5.97,13.88-13.3,13.88
		c-7.33,0-13.3-6.23-13.3-13.88C4.88,47.26,10.85,41.03,18.18,41.03z"/>
	<path class="st1" d="M1.87,35.92h32.61V1.88H1.87V35.92z M8.71,6.49L8.71,6.49h5.67h0v18.89h13.26h0v5.92h0H8.71h0V6.49z"/>
	<path class="st2" d="M36.38,71.93h32.61V37.89H36.38V71.93z M41.85,42.51h12.67v0c4.96,0,9,4.21,9,9.39c0,5.18-4.04,9.39-9,9.39
		h-6.99v6.02h-5.67V42.51z"/>
	<path class="st2" d="M57.84,51.9c0-1.91-1.49-3.47-3.32-3.47v0h-6.99v6.94h6.99C56.35,55.37,57.84,53.81,57.84,51.9z"/>
</g>
</svg>
